<svg id="logo" xmlns="http://www.w3.org/2000/svg" viewBox="0 0 285 285"><title>NHMRC</title><rect id="outer-box" width="283.46" height="283.46" style="fill: currentColor"></rect><path id="inner-circle" d="M239.6,141.73a97.87,97.87,0,1,1-97.87-97.86,97.86,97.86,0,0,1,97.87,97.86" style="fill:#ffffff"></path><path id="text" d="M205,145h-2.37a4.21,4.21,0,0,1-1,2.63,4.5,4.5,0,0,1-3.32,1.39,4.64,4.64,0,0,1-3.32-1.39c-1.49-1.55-1.54-4-1.54-5.92s0-4.37,1.54-5.91a4.64,4.64,0,0,1,3.32-1.39,4.43,4.43,0,0,1,3.29,1.33,4,4,0,0,1,1,2.55H205a6.26,6.26,0,0,0-1.8-4.17,7,7,0,0,0-4.86-1.87,7.06,7.06,0,0,0-4.94,1.95c-2,1.93-2.29,4.61-2.29,7.51s.31,5.58,2.29,7.51a7.13,7.13,0,0,0,9.82,0A6.35,6.35,0,0,0,205,145m-28.66-6.76c0,1.72-1.08,2.7-3,2.7H169v-5.45h4.37a2.79,2.79,0,0,1,3,2.75m3.32,12.58-3.34-7.46a5.27,5.27,0,0,0,3.34-5.12c0-2.93-2-5.66-6.33-5.66h-7.69v18.24H169v-6.9h4l3,6.9Zm-27.54,0V132.6h-4.25l-4.81,13-4.78-13h-4.48v18.24H137V137.67l4.71,12.91h2.45l4.73-12.76v13Zm-31.85,0V132.6H117v7.13h-7.48V132.6h-3.32v18.24h3.32v-8H117v8Zm-28.09,0V132.6H90v14.71L81,132.6H78.46v18.24h2.21V136.18l9,14.66Z" style="fill:#231f20"></path></svg>