<svg version="1.1" id="arena" xmlns="http://www.w3.org/2000/svg" xmlns:xlink="http://www.w3.org/1999/xlink" x="0px" y="0px"
	 viewBox="0 0 107.2 21.2" style="enable-background:new 0 0 107.2 21.2;" xml:space="preserve">
<style type="text/css">
	.st0{clip-path:url(#SVGID_2_);fill:url(#SVGID_3_);}
</style>
<g>
	<defs>
		<path id="SVGID_1_" d="M9.6,8.7c0.3-0.8,0.5-1.6,0.8-2.3c0.2,0.7,0.5,1.6,0.7,2.3l1.2,3.4H8.4L9.6,8.7z M8.2,0l-8,20.8L0,21.2h5
			l1.6-4.6h7.1l1.6,4.6h5.2l-8-21L12.4,0H8.2L8.2,0z M29.1,4.5h5.1c1.8,0,2.7,0.8,2.7,2.3c0,1.6-0.9,2.4-2.7,2.4h-5.1V4.5z M24.4,0
			v21.2h4.7v-7.4h3.7l3.7,7.4h5.4l-4-8.1c2.6-1.1,3.8-3.2,3.8-6.2c0-4.1-2.9-6.8-7.4-6.8h-9.9V0z M46,0v21.2h15.3v-4.6H50.7v-4.4
			h5.9V7.6h-5.9v-3h10.2V0H46z M78.3,0v12.5c-0.3-0.4-0.6-0.9-0.9-1.3L70,0.2l-0.1-0.1h-4.4v21.2h4.6V8.5c0.3,0.4,0.6,0.9,0.8,1.3
			l7.7,11.5h4.1V0H78.3L78.3,0z M96.1,8.7c0.3-0.8,0.5-1.6,0.8-2.3c0.2,0.7,0.5,1.6,0.8,2.3l1.2,3.4H95L96.1,8.7z M94.7,0l-8.1,21.2
			h5l1.6-4.6h7.1l1.6,4.6h5.2l-8-21L99,0H94.7L94.7,0z"/>
	</defs>
	<clipPath id="SVGID_2_">
		<use xlink:href="#SVGID_1_"  style="overflow:visible;"/>
	</clipPath>
	
		<linearGradient id="SVGID_3_" gradientUnits="userSpaceOnUse" x1="-903.957" y1="-136.2489" x2="-903.0659" y2="-136.2489" gradientTransform="matrix(120.1788 0 0 120.1788 108636.5703 16384.8242)">
		<stop  offset="0" style="stop-color:#0D8648"/>
		<stop  offset="0.5" style="stop-color:#1E988A"/>
		<stop  offset="0.631" style="stop-color:#1E9A8D"/>
		<stop  offset="0.746" style="stop-color:#1CA098"/>
		<stop  offset="0.855" style="stop-color:#1AAAAA"/>
		<stop  offset="0.96" style="stop-color:#17B7C3"/>
		<stop  offset="1" style="stop-color:#16BECF"/>
	</linearGradient>
	<path class="st0" d="M0.1,0h107.1v21.2H0.1V0z"/>
</g>
</svg>
